<?xml version="1.0" encoding="UTF-8" standalone="no"?>
<svg
   version="1.1"
   id="Layer_1"
   x="0px"
   y="0px"
   width="80"
   viewBox="0 0 80 80"
   enable-background="new 0 0 1024 1024"
   xml:space="preserve"
   sodipodi:docname="pluginIcon_dark.svg"
   inkscape:version="1.4 (e7c3feb100, 2024-10-09)"
   inkscape:export-filename="pluginIcon_dark.png"
   inkscape:export-xdpi="96"
   inkscape:export-ydpi="96"
   height="80"
   xmlns:inkscape="http://www.inkscape.org/namespaces/inkscape"
   xmlns:sodipodi="http://sodipodi.sourceforge.net/DTD/sodipodi-0.dtd"
   xmlns="http://www.w3.org/2000/svg"
   xmlns:svg="http://www.w3.org/2000/svg"><defs
   id="defs11" /><sodipodi:namedview
   id="namedview11"
   pagecolor="#ffffff"
   bordercolor="#000000"
   borderopacity="0.25"
   inkscape:showpageshadow="2"
   inkscape:pageopacity="0.0"
   inkscape:pagecheckerboard="0"
   inkscape:deskcolor="#d1d1d1"
   inkscape:zoom="9.819592"
   inkscape:cx="40.582134"
   inkscape:cy="55.552206"
   inkscape:window-width="1920"
   inkscape:window-height="1024"
   inkscape:window-x="0"
   inkscape:window-y="32"
   inkscape:window-maximized="1"
   inkscape:current-layer="g84" />











<g
   id="g84"
   transform="matrix(0.10480656,0,0,0.10480656,-13.660959,-2.5097832)"><g
     id="g85"
     transform="matrix(0.98467639,0,0,0.98467639,7.845691,0.36695181)"><path
       style="fill:#afc6e9;fill-opacity:1;stroke:none;stroke-width:2;stroke-linecap:round;stroke-dasharray:none"
       d="m 263.0374,451.07724 c -33.47992,-5.95169 -58.29913,-18.19091 -79.09438,-39.00421 -16.12549,-16.13948 -26.01411,-33.87579 -31.80524,-57.04614 -4.3523,-17.41355 -5.08956,-23.79373 -5.06382,-43.82181 0.021,-16.34964 0.27492,-20.01423 1.91541,-27.64406 7.46459,-34.71737 26.69506,-65.18877 52.99195,-83.96774 19.82733,-14.15897 47.04351,-23.74702 72.78386,-25.6412 10.53142,-0.77498 76.69588,-0.78124 77.46979,-0.007 0.22803,0.22802 -1.19208,2.13988 -3.15579,4.24858 -1.96371,2.10869 -5.44577,7.09229 -7.73791,11.07465 -2.29214,3.98237 -5.67539,9.58133 -7.51833,12.44213 -3.01554,4.68105 -3.6633,5.22737 -6.4743,5.46039 -1.71793,0.14241 -6.80695,-0.56444 -11.30893,-1.57079 -11.16421,-2.49558 -28.23612,-3.0864 -38.34258,-1.32696 -15.84129,2.75782 -33.51393,10.29108 -44.01899,18.76383 -9.58724,7.7325 -26.7657,25.91609 -32.20162,34.08577 -3.51189,5.27805 -4.94834,8.28251 -5.25325,10.98766 -0.79206,7.02714 1.77343,5.36583 18.96825,-12.28315 16.11542,-16.54107 23.06313,-22.67208 29.23568,-25.7991 14.09667,-7.14137 40.32272,-13.38522 52.08132,-12.39943 7.68809,0.64455 22.6735,4.58848 24.66654,6.49186 1.48422,1.41746 1.51649,1.88175 0.47271,6.8003 -1.74153,8.20647 -3.04435,9.0799 -13.54599,9.08149 -14.4577,0.002 -17.58657,2.72331 -18.10978,15.74979 -0.56667,14.10833 2.06467,17.10708 15.20652,17.3298 5.39581,0.0915 7.6017,0.44941 8.15474,1.32333 0.41696,0.65889 0.76388,5.43117 0.77094,10.60507 0.007,5.1739 0.60627,12.35227 1.33158,15.95192 1.25995,6.25299 1.24128,6.84827 -0.41885,13.35034 -2.22047,8.69671 -2.24098,18.07997 -0.076,34.76666 1.55016,11.94791 4.77726,26.35837 6.71249,29.9744 1.79381,3.35176 0.88474,6.03593 -4.50851,13.31226 -2.942,3.9692 -7.78543,10.98638 -10.76318,15.59372 -15.03452,23.26228 -19.65556,30.68651 -22.68115,36.4399 -1.81718,3.4555 -3.89365,6.75394 -4.61439,7.32986 -1.7337,1.38534 -5.45946,1.23421 -16.0688,-0.6518 z"
       id="path33" /><path
       style="fill:#afc6e9;fill-opacity:1;stroke:none;stroke-width:1.6754;stroke-linecap:round;stroke-dasharray:none"
       d="m 475.39403,236.89254 -4.18849,-2.25695 -65.89709,0.24833 c -76.88156,0.28973 -69.11295,1.53495 -65.09277,-10.43366 5.28338,-15.72934 14.73361,-32.3145 25.82644,-45.32542 l 5.12107,-6.00657 5.41457,2.45508 c 17.78078,8.06219 54.69016,16.30385 88.52479,19.76709 10.90581,1.1163 21.71702,1.48003 43.79943,1.47359 29.39361,-0.009 44.88206,-0.94146 69.94784,-4.21297 19.13799,-2.49783 50.63486,-10.08523 64.1456,-15.45227 3.56096,-1.41456 7.25894,-2.45894 8.21776,-2.32084 5.33426,0.76829 35.69978,49.90852 35.69978,57.77263 0,2.09071 -0.18056,2.15823 -7.32987,2.74103 -4.03142,0.32864 -34.65978,0.5117 -68.06302,0.4068 -60.01994,-0.18848 -60.80033,-0.16964 -66.45305,1.60488 -5.49644,1.72546 -6.02007,1.74692 -13.40318,0.54947 -8.84792,-1.43502 -21.13381,-1.5864 -31.97655,-0.39398 -17.36048,1.9092 -19.71745,1.84941 -24.29326,-0.61624 z"
       id="path42" /><path
       style="fill:#afc6e9;fill-opacity:1;stroke:none;stroke-width:1.6754;stroke-linecap:round;stroke-dasharray:none"
       d="m 743.13959,449.63479 c -3.57972,-3.38149 -40.4017,-61.26535 -40.87639,-64.25735 -0.25645,-1.61641 0.50989,-5.01872 2.09442,-9.2986 1.37437,-3.71221 3.3833,-10.49757 4.4643,-15.07858 1.88929,-8.00634 1.95977,-9.49771 1.81875,-38.48625 -0.0807,-16.58643 -0.39161,-33.80434 -0.69096,-38.26202 -0.50254,-7.48343 -0.411,-8.23814 1.19382,-9.84296 1.44987,-1.44988 2.77951,-1.73809 8.01842,-1.73809 6.02223,0 6.41611,-0.12268 9.58459,-2.98521 8.3736,-7.56505 8.26742,-23.58222 -0.19186,-28.94089 -2.35582,-1.49234 -3.65178,-1.65195 -10.46675,-1.28908 -10.6677,0.56801 -11.38318,-0.11139 -14.96041,-14.20581 -0.30805,-1.21372 0.0338,-1.95543 1.09267,-2.3705 3.57628,-1.40195 31.83218,-6.33259 36.17835,-6.3131 6.14981,0.0276 31.95547,6.39615 41.17437,10.16144 3.91625,1.59951 11.45553,5.55602 16.75398,8.79225 5.29844,3.23623 13.40318,8.19101 18.01052,11.01062 13.58838,8.31585 16.21163,7.70855 9.58264,-2.21845 -8.60404,-12.88464 -29.47949,-27.18493 -51.92272,-35.56858 -11.53207,-4.30778 -22.9889,-6.43939 -34.61013,-6.43939 -10.10899,0 -30.06938,2.47953 -37.0788,4.60601 -6.97372,2.11566 -6.89981,2.16268 -12.85453,-8.1781 -2.97947,-5.17406 -7.78803,-12.55077 -10.68568,-16.3927 -2.89765,-3.84192 -5.05546,-7.32993 -4.79514,-7.75114 0.6662,-1.07794 70.62075,-0.96966 80.6171,0.12478 20.78522,2.27565 41.14078,9.1199 56.63884,19.04395 10.71619,6.86202 25.70367,20.53673 34.15694,31.16507 13.54483,17.03001 23.21892,38.06004 28.10824,61.10312 2.05264,9.67399 2.23327,12.10346 2.24566,30.20604 0.015,21.96813 -0.97967,28.84305 -6.62388,45.78134 -8.80925,26.43656 -27.72046,50.62221 -52.7339,67.44166 -18.17822,12.22333 -34.75358,18.05202 -60.35895,21.2251 -5.52881,0.68514 -10.14068,1.24872 -10.24859,1.2524 -0.10792,0.004 -1.29363,-1.02996 -2.63492,-2.29698 z"
       id="path43" /><path
       style="fill:#afc6e9;fill-opacity:1;stroke:none;stroke-width:1.6754;stroke-linecap:round;stroke-dasharray:none"
       d="m 677.69809,741.6182 c -17.36763,-20.95273 -31.95155,-41.51128 -39.74384,-56.02581 -5.03548,-9.37948 -4.98082,-10.73291 0.58161,-14.40109 6.36442,-4.19708 9.56495,-5.69376 10.99891,-5.1435 0.69414,0.26637 4.56433,5.63545 8.60042,11.93128 7.46493,11.64445 16.36552,24.68 26.11912,38.25333 2.9797,4.14661 8.80896,10.7484 12.95391,14.67064 l 7.53628,7.13135 -8.11517,6.69068 c -4.46334,3.67987 -8.62648,6.80535 -9.25141,6.9455 -0.62493,0.14015 -4.98085,-4.38342 -9.67983,-10.05238 z"
       id="path44" /><path
       style="fill:#afc6e9;fill-opacity:1;stroke:none;stroke-width:1.6754;stroke-linecap:round;stroke-dasharray:none"
       d="m 329.63445,748.00518 c -9.16137,-6.87732 -10.47123,-7.96368 -10.47123,-8.68452 0,-0.3931 3.80393,-5.18333 8.45318,-10.64494 11.62639,-13.65787 27.69352,-34.61497 32.33929,-42.18161 7.82431,-12.74362 12.08603,-19.07225 14.14737,-21.00877 2.39422,-2.24925 1.24076,-2.68403 11.95118,4.5048 5.78592,3.88351 6.39186,4.61517 6.0105,7.25749 -0.37854,2.62279 -19.16812,29.09594 -34.80462,49.03717 -17.35364,22.13109 -20.27625,25.56697 -21.70908,25.52164 -0.48972,-0.0155 -3.15218,-1.72606 -5.91659,-3.80126 z"
       id="path45" /><path
       style="fill:#afc6e9;fill-opacity:1;stroke:none;stroke-width:1.6754;stroke-linecap:round;stroke-dasharray:none"
       d="m 402.73699,984.05641 c -7.20572,-0.21173 -8.2603,-0.43777 -9.06599,-1.94322 -0.72357,-1.352 -0.51019,-2.51286 1.0338,-5.6243 2.22608,-4.48599 6.95829,-7.65449 11.46503,-7.67653 5.91761,-0.0289 12.67953,6.36422 12.67953,11.98805 0,3.52626 -0.87776,3.70364 -16.11237,3.256 z"
       id="path46" /><path
       style="fill:#afc6e9;fill-opacity:1;stroke:none;stroke-width:1.6754;stroke-linecap:round;stroke-dasharray:none"
       d="m 436.44104,984.10426 c -1.98358,-0.75507 -2.38727,-1.93346 -1.60125,-4.67415 1.74304,-6.07763 7.94852,-9.50581 14.29217,-7.89562 6.70249,1.70127 13.66648,11.04988 9.43958,12.67189 -1.65459,0.63493 -20.42179,0.54833 -22.1305,-0.10212 z"
       id="path47" /><path
       style="fill:#afc6e9;fill-opacity:1;stroke:none;stroke-width:1.6754;stroke-linecap:round;stroke-dasharray:none"
       d="m 353.50886,983.20346 c 0,-1.41769 5.0109,-8.49137 6.8585,-9.68184 2.89523,-1.86551 7.7424,-2.49752 10.97424,-1.43092 3.98368,1.31473 6.51629,4.31199 7.05834,8.35332 l 0.46048,3.43314 h -12.67578 c -6.97168,0 -12.67578,-0.30317 -12.67578,-0.6737 z"
       id="path48" /><path
       style="fill:#afc6e9;fill-opacity:1;stroke:none;stroke-width:1.6754;stroke-linecap:round;stroke-dasharray:none"
       d="m 562.4891,981.57349 c 0.80723,-3.23473 4.24643,-7.50582 7.32636,-9.09852 4.0841,-2.11197 10.92544,-1.23497 14.10125,1.80764 2.82081,2.70251 4.34623,6.92994 3.08424,8.54742 -0.58665,0.75191 -4.23815,1.04713 -12.95186,1.04713 h -12.13487 z"
       id="path49" /><path
       style="fill:#afc6e9;fill-opacity:1;stroke:none;stroke-width:1.6754;stroke-linecap:round;stroke-dasharray:none"
       d="m 604.19021,983.32237 c -0.57592,-0.23239 -1.04713,-1.76886 -1.04713,-3.41437 0,-7.21999 12.89893,-13.57916 20.04659,-9.88296 5.20934,2.69386 9.56424,11.25442 6.66079,13.09332 -1.20588,0.76374 -23.82737,0.94359 -25.66025,0.20401 z"
       id="path50" /><path
       style="fill:#c8beb7;fill-opacity:1;stroke:none;stroke-width:1.6754;stroke-linecap:round;stroke-dasharray:none"
       d="m 647.55347,981.15464 c 0.028,-6.17285 5.04335,-10.35498 11.29658,-9.41982 4.56424,0.68258 10.18182,4.12659 11.78373,7.22433 2.38407,4.61028 1.6746,4.91801 -11.33859,4.91801 h -11.75407 z"
       id="path51" /><path
       style="fill:#c8beb7;fill-opacity:1;stroke:none;stroke-width:1.6754;stroke-linecap:round;stroke-dasharray:none"
       d="m 305.79784,864.12404 c -1.60155,-1.60155 -1.6274,-2.85956 -1.17471,-57.17293 0.25457,-30.54444 0.5795,-55.65739 0.72204,-55.80655 0.533,-0.55772 6.2006,2.8479 17.38927,10.44909 8.61546,5.85302 12.21467,7.83677 14.24088,7.84902 2.37238,0.0143 3.90187,-1.21674 12.22888,-9.84296 10.11555,-10.47903 22.42788,-24.80974 30.78188,-35.82801 10.93279,-14.41947 27.28952,-40.35834 30.11526,-47.75745 2.09748,-5.49216 0.9532,-6.92415 -12.96008,-16.21854 -11.54159,-7.71006 -12.12273,-8.23362 -13.16552,-11.86139 -1.38401,-4.81484 -5.36626,-9.45611 -14.99808,-17.48013 -8.46613,-7.0529 -27.28474,-23.72044 -32.83945,-29.0857 l -3.57181,-3.45 v -28.12563 c 0,-28.1146 -7.3e-4,-28.12614 -1.8618,-29.42968 -1.923,-1.34692 -8.68185,-1.765 -10.44185,-0.6459 -2.28323,1.4518 -2.77493,5.84243 -2.77493,24.77866 0,11.92103 -0.32619,19.79004 -0.84173,20.30557 -0.56383,0.56383 -3.26031,0.34723 -8.16756,-0.65608 -8.21976,-1.68059 -18.29691,-1.95939 -23.05559,-0.63789 -3.76941,1.04677 -8.98236,5.38383 -8.98236,7.47312 0,2.46485 1.74495,3.1191 9.63354,3.61203 9.07925,0.56732 18.80876,3.49055 26.31001,7.90483 7.36505,4.33414 7.79898,5.23951 4.40515,9.19126 -1.50306,1.75014 -3.73253,5.38135 -4.95436,8.06934 -2.12694,4.67919 -2.33029,4.86577 -4.77648,4.38276 -7.13204,-1.40824 -10.30712,-1.46141 -12.72126,-0.21301 -2.86677,1.48246 -25.76674,25.99834 -28.57297,30.58918 -1.30701,2.13821 -1.88184,4.39687 -1.88482,7.40605 -0.004,4.03941 -0.20004,4.45057 -2.9249,6.13463 -1.60634,0.99278 -5.15496,4.28067 -7.88583,7.30644 l -4.96522,5.50141 -2.14517,-1.6874 c -1.17985,-0.92807 -5.2059,-5.03339 -8.94677,-9.12294 -16.07985,-17.57859 -22.83574,-35.52471 -22.8242,-60.62941 0.006,-12.97876 1.12358,-20.7408 4.5231,-31.41371 4.53844,-14.24858 10.81726,-24.66512 28.20532,-46.79249 6.10694,-7.77145 17.35552,-22.56904 24.99685,-32.88351 8.45138,-11.4079 14.43804,-18.74991 15.28398,-18.74417 1.89267,0.0128 36.80389,10.89277 48.72064,15.18359 5.29844,1.90779 15.47648,5.96094 22.61787,9.007 10.90202,4.65011 13.02801,5.84635 13.25675,7.45923 0.19339,1.36369 -2.02321,5.00881 -7.64109,12.56548 -9.55544,12.85311 -9.80416,13.3123 -9.80416,18.10083 0,5.68572 3.07813,8.23113 17.24258,14.25849 13.84869,5.89298 50.51634,24.20658 57.94575,28.94091 8.22378,5.24053 8.36543,5.79178 6.62799,25.79477 -1.27285,14.65422 -1.43392,29.98396 -1.41669,134.82957 0.0191,116.10828 -0.0105,118.3115 -1.60088,119.16265 -1.07509,0.57537 -22.49803,0.86717 -63.6651,0.86717 -60.45038,0 -62.08686,-0.0421 -63.68237,-1.6376 z"
       id="path52" /><path
       style="fill:#c8beb7;fill-opacity:1;stroke:none;stroke-width:1.675;stroke-linecap:round;stroke-dasharray:none;stroke-opacity:1"
       d="m 452.98559,864.85684 c -1.36242,-0.79354 -1.46598,-3.56568 -1.46598,-39.2438 0,-71.65735 -0.40334,-13.65209 0.26963,-83.83082 10e-4,-0.14828 -0.26963,-11.91716 -0.26963,-26.48258 v -26.48259 l 0.31915,-7.18416 c 0,0 -5.7496,-17.39346 11.47708,-18.84952 7.43674,-0.62858 25.44542,9.3705 37.628,5.68919 25.75387,-7.78226 31.20903,-9.4534 42.32316,-18.24844 12.12979,-9.59876 20.32129,-21.88371 26.30274,-39.44669 4.88129,-14.33269 6.3644,-15.9245 23.77168,-25.51383 25.80406,-14.21495 47.50422,-24.52369 64.00604,-30.40631 8.68982,-3.09778 12.54082,-5.73099 14.20446,-9.71262 2.38202,-5.70099 0.40529,-9.88872 -10.11017,-21.41853 -9.09661,-9.9741 -10.29906,-11.85106 -8.77136,-13.69181 1.74779,-2.10596 11.12628,-6.4522 30.09203,-13.94545 19.35603,-7.64744 49.05374,-17.65091 50.61844,-17.05048 0.52815,0.20267 8.07339,10.11485 16.76719,22.02705 8.69381,11.91221 19.8731,26.99692 24.84287,33.52158 18.79666,24.67754 25.40436,37.40824 29.71335,57.24712 2.38973,11.00245 2.20586,32.3915 -0.35957,41.82896 -3.71685,13.67313 -10.27975,25.10103 -22.2914,38.81569 -5.68695,6.49324 -6.60427,7.22257 -7.90208,6.28274 -0.80753,-0.5848 -4.94697,-3.8905 -9.19874,-7.34601 l -7.7305,-6.28274 0.52543,-3.97283 c 0.40901,-3.09252 0.13816,-4.76309 -1.22239,-7.53929 -2.34304,-4.78099 -14.26291,-18.27916 -22.73232,-25.74229 -5.53044,-4.87336 -7.26891,-5.96794 -8.96398,-5.64391 -4.56682,0.87301 -7.97613,-0.98999 -14.65156,-8.00624 -6.25365,-6.57293 -6.4248,-6.86054 -5.02619,-8.44608 4.18658,-4.74613 25.67282,-12.25397 35.10544,-12.26673 4.65144,-0.006 6.97086,-1.41537 6.97086,-4.23489 0,-2.17534 -2.76949,-3.81879 -9.22611,-5.47489 -7.12756,-1.82819 -15.93967,-1.22494 -24.60023,1.68407 -3.63062,1.21949 -6.83481,1.9845 -7.12044,1.70001 -0.28562,-0.28448 -0.70779,-10.69877 -0.93816,-23.14286 -0.41718,-22.53535 -0.42674,-22.63201 -2.39647,-24.22553 -2.30166,-1.86204 -8.24128,-2.1628 -10.4738,-0.53034 -2.51432,1.83852 -3.00543,6.99474 -3.02602,31.7707 -0.0131,15.70702 -0.34052,24.74793 -0.94439,26.07327 -0.50842,1.11586 -11.6704,12.13246 -24.80441,24.48133 l -23.88,22.4525 0.39269,4.08685 0.3927,4.08687 -6.79257,5.26238 c -3.73591,2.89431 -9.14418,6.84232 -12.01839,8.77337 -8.43963,5.67022 -8.25604,7.24475 3.18744,27.33629 13.7005,24.05421 23.65597,38.03823 45.77932,64.30421 10.62322,12.61243 12.40717,13.92921 16.67361,12.30711 2.99267,-1.13781 11.73906,-7.39267 18.70046,-13.37338 7.12681,-6.12281 9.79956,-7.82549 11.34999,-7.23053 1.10122,0.42258 1.26302,5.62186 1.26302,40.58579 0,50.84129 -0.67464,72.75807 -2.28935,74.37277 -1.00646,1.00646 -20.46565,1.17735 -131.59286,1.15564 -87.02271,-0.017 -130.89948,-0.30955 -131.87771,-0.87932 z m 126.4812,-79.79606 c 8.34988,-4.3885 13.62213,-13.06192 13.62325,-22.41171 5.3e-4,-4.48214 -0.48124,-6.48504 -2.56105,-10.6471 -4.37867,-8.76249 -11.12016,-13.05599 -20.475,-13.04003 -25.26982,0.0431 -34.25373,34.63003 -11.93523,45.94909 3.95859,2.00763 5.10434,2.19687 11.51638,1.90207 4.51873,-0.20775 8.11107,-0.84802 9.83165,-1.75232 z m -0.19812,-96.34916 c 15.12717,-7.05928 18.98813,-27.92573 7.2781,-39.33431 -9.88704,-9.6325 -24.77304,-8.94447 -34.48707,1.59402 -7.10721,7.71041 -8.52278,16.13163 -4.20944,25.04181 6.07115,12.54133 19.83467,18.10418 31.41841,12.69848 z m -71.43254,70.00073 c 2.47239,13.64725 -6.17274,26.28552 -19.29716,28.82025 -12.48714,2.41165 -24.51233,-5.46155 -27.05229,-17.71163 -2.68809,-12.96509 6.04249,-26.28607 19.19885,-29.29305 11.79913,-2.69686 23.82063,5.17684 27.1506,18.18443 z"
       id="path53"
       sodipodi:nodetypes="ssssccsssssssssssssssssscsssssscsssssssssscccsssssssssssssssssssssss" /><circle
       style="fill:#000000;fill-opacity:1;stroke:none;stroke-width:1.675;stroke-linecap:round;stroke-dasharray:none;stroke-opacity:1"
       id="path84-5"
       cx="483.27283"
       cy="675.57568"
       r="23.011383" /><path
       style="fill:#afc6e9;fill-opacity:1;stroke:none;stroke-width:1.6754;stroke-linecap:round;stroke-dasharray:none"
       d="m 476.30769,651.80098 c -6.44602,-2.33547 -17.97031,-9.00023 -20.83343,-12.04844 -2.47372,-2.63364 -2.33812,-7.07165 0.47914,-15.68149 6.33017,-19.34559 6.59972,-23.48052 5.62393,-86.26847 -0.94693,-60.93009 -1.98602,-76.05942 -6.84646,-99.68614 -4.6236,-22.4755 -16.24756,-42.43555 -32.9133,-56.517 -3.99582,-3.37619 -5.59714,-4.21616 -8.03773,-4.21616 -4.58684,0 -5.87263,1.9342 -5.61518,8.44687 0.2076,5.25186 0.11244,5.51927 -4.14881,11.6579 -6.30077,9.07671 -22.08666,29.63019 -23.31782,30.36016 -1.72406,1.02222 -11.06943,-5.82959 -19.67681,-14.42659 -8.4436,-8.43341 -15.9708,-18.88489 -19.98871,-27.75421 -5.66659,-12.50874 -10.29288,-32.31178 -10.39986,-44.51716 -0.0876,-9.99757 0.89259,-11.70455 4.20199,-7.31742 9.63764,12.77621 25.41236,23.22306 41.71094,27.62316 8.58332,2.31723 29.61734,3.22448 39.89981,1.72099 19.15645,-2.80105 35.10232,-10.96457 48.57179,-24.86644 12.99051,-13.40754 19.48579,-26.82466 23.35459,-48.24291 0.89322,-4.94495 2.18409,-10.07386 2.86861,-11.39759 3.54171,-6.8489 25.18925,-10.1034 35.0667,-5.27193 4.66761,2.28312 6.46931,5.18404 6.46931,10.41625 0,2.02804 0.98712,7.60699 2.19359,12.39766 6.84836,27.19345 22.42687,47.05452 45.97409,58.61243 29.66023,14.55842 61.92141,13.0959 91.20605,-4.13473 8.9923,-5.29093 13.53238,-9.47011 18.2031,-16.75607 4.67874,-7.29847 4.79989,-7.07117 3.95958,7.42858 -1.61992,27.95224 -11.53432,50.60375 -30.99014,70.80347 -9.14951,9.49934 -14.05531,12.72666 -17.93527,11.7989 -4.43535,-1.06057 -22.3485,-21.02212 -28.46559,-31.72068 -1.43076,-2.50235 -2.03374,-4.84538 -2.04084,-7.93032 -0.009,-3.7382 -0.31585,-4.57894 -2.10065,-5.74839 -3.59821,-2.35764 -7.47957,-0.94629 -13.62799,4.95547 -14.1519,13.58414 -25.9349,34.47686 -31.19869,55.31913 -4.76395,18.86319 -5.84856,33.49353 -6.68445,90.16694 -0.79773,54.08617 -1.37114,59.30154 -8.65078,78.68211 -4.35069,11.58285 -9.39386,19.74183 -16.91006,27.35757 -7.75256,7.85523 -14.44405,12.02158 -25.08992,15.62185 -6.46047,2.18484 -9.12727,2.61277 -18.05157,2.89665 -9.54927,0.30375 -10.98085,0.14844 -16.25916,-1.76395 z m 15.70074,-62.66423 c 5.70612,-1.55115 9.06493,-1.86387 20.24434,-1.88482 11.84329,-0.0222 14.16391,0.20997 19.93967,1.99489 5.95161,1.83926 6.65467,1.90182 7.85732,0.69918 0.87411,-0.87413 1.13969,-2.04259 0.78523,-3.45485 -0.44218,-1.76181 -1.50377,-2.43304 -6.08671,-3.84856 -13.28062,-4.10197 -30.60175,-4.08905 -45.57432,0.034 -7.31152,2.01339 -8.7673,3.13217 -8.00869,6.15473 0.67669,2.69617 1.91975,2.73119 10.84316,0.30545 z m -1.6769,-33.34481 c 9.62316,-3.38228 15.79848,-4.41958 26.10974,-4.38582 8.34806,0.0273 11.30193,0.40507 17.42242,2.22792 7.85288,2.33882 10.01591,2.1158 11.049,-1.1392 0.91388,-2.87936 -0.99727,-4.84017 -6.47322,-6.64143 -12.65079,-4.16134 -28.79372,-4.39671 -43.46745,-0.63376 -12.85442,3.29641 -15.88891,5.6945 -12.92656,10.21562 1.63008,2.48782 2.15791,2.51053 8.28607,0.35667 z m -8.43736,-125.26918 c 1.40443,-1.18175 5.06252,-3.41214 8.12909,-4.95645 17.49527,-8.81047 34.22361,-7.53864 50.86221,3.86698 5.63528,3.86294 9.92327,2.77611 9.3337,-2.36571 -0.2127,-1.85496 -1.51369,-3.19276 -6.13385,-6.30732 -15.66494,-10.56014 -35.08667,-12.75196 -52.31438,-5.90385 -6.4505,2.5641 -13.82589,6.83161 -17.00519,9.83945 -5.76398,5.45316 1.00089,10.98289 7.12842,5.8269 z m -11.772,-43.92222 c 17.07723,-11.37285 39.2425,-15.6093 57.20918,-10.93438 7.67204,1.99626 16.97951,6.19319 24.35167,10.98067 7.57576,4.91969 12.92592,4.00366 12.92592,-2.21311 0,-3.13992 -1.22052,-4.57065 -7.10596,-8.32977 -9.84653,-6.2891 -20.96373,-10.83709 -31.84703,-13.02842 -7.1483,-1.4393 -23.00725,-1.20145 -30.99485,0.46485 -12.13459,2.5314 -28.87119,10.19071 -36.05968,16.50229 -3.26627,2.86783 -3.87586,6.59421 -1.50693,9.21185 2.42222,2.67654 6.16992,1.91306 13.02768,-2.65398 z"
       id="path41" /><g
       id="g13"
       transform="translate(-4.6402273,1.8199858)"><path
         fill="#000000"
         opacity="1"
         stroke="none"
         d="m 597.10348,755.93988 c 2.47239,13.64725 -6.17274,26.28552 -19.29716,28.82025 -12.48714,2.41165 -24.51233,-5.46155 -27.05229,-17.71163 -2.68809,-12.96509 6.04249,-26.28607 19.19885,-29.29305 11.79913,-2.69686 23.82063,5.17684 27.1506,18.18443 z"
         id="path3"
         style="stroke-width:1.14" /><path
         fill="#000000"
         opacity="1"
         stroke="none"
         d="m 598.04608,662.85169 c -0.17068,14.69352 -10.63985,25.92884 -23.74472,25.99835 -11.74187,0.0623 -23.42146,-11.80956 -24.1286,-24.52569 -0.64605,-11.61745 14.90025,-25.14544 26.72839,-23.25836 11.68641,1.86441 19.17533,9.40544 21.14493,21.7857 z"
         id="path4"
         style="stroke-width:1.14" /><path
         fill="#000000"
         opacity="1"
         stroke="none"
         d="m 721.48564,646.18633 c 6.29944,-7.13162 6.37988,-7.12974 11.78988,-0.0349 7.48035,9.81039 7.4775,9.80802 -0.53034,19.60923 -0.93802,1.14821 -1.57085,2.62296 -4.03099,3.11475 -3.47031,-4.66938 -7.42804,-9.38233 -12.0124,-13.52172 -1.63075,-1.47239 -1.19643,-3.50378 0.33608,-5.04818 1.32772,-1.33796 2.78487,-2.54747 4.44777,-4.11922 z"
         id="path10"
         style="stroke-width:1.14" /><path
         fill="#000000"
         opacity="1"
         stroke="none"
         d="m 314.60116,654.2003 c -4.19426,5.31189 -9.10895,7.55533 -13.97457,13.01478 -5.02668,-2.92258 -6.98556,-3.74754 -9.98746,-7.73045 -1.51886,-2.01525 0.2913,-3.56208 1.67048,-4.79748 3.94169,-3.53057 7.97991,-6.93568 10.35013,-11.85605 0.35812,-0.74346 1.28222,-1.52992 2.07115,-1.69643 3.65282,-0.77102 11.35932,9.00778 9.87027,13.06563 z"
         id="path11"
         style="stroke-width:1.14"
         sodipodi:nodetypes="ccscssc" /><path
         style="fill:#000000;stroke-width:1.14"
         d="m 558.79869,375.72748 -71.50435,0.71504"
         id="path12" /><path
         style="fill:none;stroke:#000000;stroke-width:10.9754;stroke-linecap:round;stroke-dasharray:none"
         d="m 465.93835,383.49026 c 0,0 46.10308,-39.01351 97.77034,-0.88668"
         id="path13" /><path
         style="fill:none;stroke:#000000;stroke-width:8.03912;stroke-linecap:round;stroke-dasharray:none"
         d="m 481.74424,426.68111 c 0,0 32.64986,-29.55588 69.24021,-0.67172"
         id="path13-3" /><path
         style="fill:none;stroke:#000000;stroke-width:7.86145;stroke-linecap:round;stroke-dasharray:none"
         d="m 490.00472,551.15534 c 0,0 27.24034,-12.78409 55.36427,-1.83437"
         id="path13-3-6"
         sodipodi:nodetypes="cc" /><path
         style="fill:none;stroke:#000000;stroke-width:6.15145;stroke-linecap:round;stroke-dasharray:none"
         d="m 488.9589,585.96132 c 0,0 27.24034,-10.63897 53.21915,-0.40429"
         id="path13-3-6-7"
         sodipodi:nodetypes="cc" /><path
         style="fill:#f2f2f2;fill-opacity:1;stroke:none;stroke-width:0.355879;stroke-linecap:round;stroke-dasharray:none;stroke-opacity:1"
         d="m 292.87478,673.43861 c -3.88357,-3.40371 -10.5757,-10.61857 -12.23646,-13.19226 -0.82915,-1.28493 -0.83215,-2.55258 -0.009,-3.84741 0.79978,-1.25826 1.9842,-2.493 6.41095,-6.68332 4.42526,-4.1889 7.75203,-7.74199 9.87686,-10.54881 0.85455,-1.12883 1.64625,-2.21773 1.75933,-2.41979 0.1868,-0.3338 0.29685,-0.3046 1.20369,0.31932 2.21397,1.52325 5.31808,4.16874 9.13106,7.78197 2.20971,2.09395 5.05408,4.74599 6.32084,5.89343 3.29448,2.98418 3.27581,3.07594 -1.58804,7.80411 -2.68815,2.61316 -18.56408,16.56106 -18.85069,16.56139 -0.0629,7e-5 -0.9712,-0.75081 -2.01841,-1.66863 z m 4.79393,-5.89278 c 0.87349,-0.88688 2.87889,-2.67613 4.45645,-3.9761 4.35205,-3.58628 5.45544,-4.5839 6.84356,-6.1875 l 1.27383,-1.47158 -0.094,-1.3967 c -0.12313,-1.82891 -0.77696,-3.46079 -2.29727,-5.73368 -2.18146,-3.26132 -5.4944,-5.96103 -7.31957,-5.9647 -0.84037,-0.002 -1.95497,0.69641 -2.40266,1.50483 -2.09735,3.78737 -4.21424,6.32357 -8.71181,10.43741 -1.80076,1.64713 -3.45435,3.29036 -3.67465,3.65162 -0.6756,1.10791 -0.53034,2.03766 0.54101,3.46287 1.70515,2.26835 3.51488,3.72253 7.62207,6.1246 1.07349,0.62783 2.00201,1.146 2.06336,1.15148 0.0614,0.005 0.82623,-0.71566 1.69972,-1.60255 z"
         id="path72"
         transform="translate(4.6402273,-1.8199858)" /><path
         style="fill:#f2f2f2;fill-opacity:1;stroke:none;stroke-width:0.355879;stroke-linecap:round;stroke-dasharray:none;stroke-opacity:1"
         d="m 293.62656,674.07113 c -0.409,-0.40526 -2.51951,-2.48995 -4.69004,-4.63266 -2.17052,-2.1427 -3.91286,-3.92936 -3.87187,-3.97036 0.041,-0.041 -0.31042,-0.42233 -0.78093,-0.8474 -0.47052,-0.42508 -0.85548,-0.8169 -0.85548,-0.87072 0,-0.0538 -0.67079,-0.93389 -1.49064,-1.95573 -2.82227,-3.51757 -2.57494,-4.48585 2.38106,-9.32195 4.35207,-4.24677 8.76937,-8.68556 9.73705,-9.78442 1.50518,-1.70922 2.63467,-3.07831 2.84983,-3.45434 0.10903,-0.19056 0.37829,-0.53881 0.59836,-0.77389 0.22006,-0.23508 0.5928,-0.73815 0.8283,-1.11793 0.23549,-0.37978 0.53138,-0.69051 0.65751,-0.69051 0.12614,0 0.92993,0.5273 1.7862,1.17178 0.85627,0.64448 1.58185,1.15599 1.6124,1.13669 0.0306,-0.0193 0.39418,0.28997 0.80806,0.68728 1.32276,1.26979 4.84247,4.44052 4.92926,4.44052 0.0461,0 0.84461,0.74097 1.77455,1.6466 0.92994,0.90564 2.40537,2.30218 3.27872,3.10344 2.74137,2.51508 4.031,3.83796 4.17108,4.27866 0.24674,0.77628 0.18592,1.2706 -0.21349,1.73492 -0.21719,0.2525 -0.40897,0.53439 -0.42619,0.62643 -0.0464,0.24827 -3.89061,3.86692 -7.8842,7.42165 -1.93268,1.7203 -3.51397,3.21091 -3.51397,3.31247 0,0.10155 -0.11951,0.18738 -0.26558,0.19071 -0.14607,0.003 -0.9613,0.64869 -1.81163,1.43414 -0.85033,0.78544 -1.90203,1.7303 -2.33712,2.09968 -1.77762,1.50917 -3.15213,2.69553 -3.55311,3.06674 -1.22653,1.13551 -2.0859,1.74339 -2.50584,1.77252 -0.28056,0.0195 -0.76713,-0.26322 -1.21229,-0.70432 z m 2.90386,-5.39082 c 0.23701,-0.26293 1.51869,-1.43414 2.84819,-2.6027 1.32949,-1.16855 2.68992,-2.38757 3.02318,-2.70893 0.33325,-0.32135 0.65966,-0.58427 0.72536,-0.58427 0.26379,0 3.05421,-2.5367 5.10175,-4.63787 1.64141,-1.68439 2.15102,-2.33859 2.08271,-2.67359 -0.0497,-0.24393 -0.15039,-0.99518 -0.22366,-1.66944 -0.13548,-1.24664 -1.47369,-4.23239 -2.49153,-5.55899 -1.11796,-1.45708 -3.9655,-4.14336 -5.04633,-4.76055 -2.38028,-1.35921 -3.31118,-0.88207 -5.86907,3.00823 -1.66759,2.53624 -2.28227,3.23494 -6.51014,7.39998 -4.36166,4.29682 -4.67537,4.65711 -4.77025,5.47843 -0.0669,0.57912 0.0249,1.14556 0.26895,1.65988 0.36501,0.76921 3.25535,3.79343 4.41755,4.62219 1.19819,0.85442 5.56433,3.49684 5.78511,3.50119 0.125,0.002 0.42118,-0.21064 0.65818,-0.47356 z"
         id="path73"
         transform="translate(4.6402273,-1.8199858)" /><path
         style="fill:#f2f2f2;fill-opacity:1;stroke:none;stroke-width:0.355879;stroke-linecap:round;stroke-dasharray:none;stroke-opacity:1"
         d="m 722.91136,676.08748 c -1.04112,-0.45373 -2.92086,-2.31578 -6.44653,-6.38587 -1.82781,-2.11006 -4.60447,-5.2706 -6.17036,-7.02344 -3.27162,-3.66221 -4.06055,-5.00884 -4.06081,-6.93151 -2.1e-4,-1.43893 0.38653,-2.61057 1.30701,-3.95965 0.8523,-1.24914 13.24525,-13.78932 14.03286,-14.19956 0.78242,-0.40754 1.99222,-0.3755 2.75583,0.073 0.72618,0.42649 15.21133,16.15864 16.30036,17.70362 0.8963,1.27156 1.10692,2.73358 0.55124,3.82638 -0.20295,0.39914 -1.63029,2.01642 -3.17186,3.59398 -1.54157,1.57755 -3.74193,3.91997 -4.8897,5.20539 -3.23642,3.62454 -6.71226,7.11461 -7.75255,7.7843 -1.04083,0.67003 -1.50205,0.72889 -2.45549,0.31338 z m 1.89822,-5.44187 c 0.67768,0 2.16131,-1.38628 4.13334,-3.86213 4.60217,-5.77792 5.46661,-7.34326 5.27336,-9.54901 -0.15554,-1.7753 -1.15554,-3.56516 -4.42243,-7.91548 -4.40036,-5.85971 -5.27401,-6.72044 -6.8182,-6.71735 -1.0169,0.002 -1.65038,0.49414 -4.84413,3.76313 -1.57755,1.61472 -3.6709,3.69899 -4.6519,4.6317 -2.38864,2.27109 -3.03865,3.77071 -2.27164,5.24086 0.1637,0.31378 1.27643,1.5089 2.47273,2.65582 2.61196,2.50414 6.02301,6.35275 8.48765,9.5764 1.07509,1.40618 1.92046,2.32447 2.08891,2.26909 0.15563,-0.0512 0.40416,-0.093 0.55231,-0.093 z"
         id="path74"
         transform="translate(4.6402273,-1.8199858)" /><path
         style="fill:#ffffff;fill-opacity:1;stroke:none;stroke-width:2.00425;stroke-linecap:round;stroke-dasharray:none;stroke-opacity:1"
         d="m 499.56665,146.94835 c -17.31364,-1.14685 -40.58079,-4.45051 -52.44237,-7.44619 -12.91736,-3.26232 -31.28089,-10.07278 -32.50633,-12.05559 -0.67964,-1.09968 2.65479,-16.68872 4.05386,-18.95246 0.70934,-1.14774 3.49016,-0.66326 11.97094,2.08563 24.54163,7.95469 47.02618,11.101 79.09472,11.06787 35.42126,-0.0366 64.083,-3.9287 88.16319,-11.97211 l 9.78807,-3.26946 1.83002,6.02704 c 1.00651,3.31487 2.18211,8.05232 2.61245,10.52767 l 0.78242,4.50064 -7.61424,3.44404 c -16.20552,7.33 -44.1898,13.13589 -75.16032,15.59349 -15.66578,1.24313 -18.059,1.27831 -30.57241,0.44943 z"
         id="path75"
         transform="translate(4.6402273,-1.8199858)" /><path
         style="fill:#ffffff;fill-opacity:1;stroke:none;stroke-width:2.00425;stroke-linecap:round;stroke-dasharray:none;stroke-opacity:1"
         d="m 372.43142,461.23922 c -1.48075,-0.59518 -2.69227,-1.55766 -2.69227,-2.13883 0,-0.58117 6.60337,-7.73305 14.67415,-15.89307 8.07078,-8.16002 19.06351,-20.63254 24.4283,-27.71672 l 9.75415,-12.88032 3.76307,4.50435 c 3.85583,4.6154 12.39194,21.24366 13.81397,26.90949 0.71231,2.83806 0.0175,3.73574 -6.74399,8.71328 -10.34292,7.61402 -24.8082,14.38026 -36.95488,17.28591 -10.96097,2.62202 -15.81211,2.91632 -20.0425,1.21591 z"
         id="path76"
         transform="translate(4.6402273,-1.8199858)" /><path
         style="fill:#ffffff;fill-opacity:1;stroke:none;stroke-width:2.00425;stroke-linecap:round;stroke-dasharray:none;stroke-opacity:1"
         d="m 627.5993,458.47298 c -15.36882,-5.03137 -27.3105,-12.2009 -37.04656,-22.24195 l -4.73925,-4.88772 3.70475,-7.46902 c 3.63094,-7.32022 13.27496,-21.269 14.64985,-21.18906 0.38304,0.0223 5.27331,6.29856 10.86726,13.9473 11.76156,16.08185 25.38724,30.42075 34.4448,36.24775 9.0717,5.83611 8.14688,7.72682 -3.94558,8.06637 -7.2775,0.20434 -11.55864,-0.38612 -17.93527,-2.47367 z"
         id="path77"
         transform="translate(4.6402273,-1.8199858)" /><path
         style="fill:#666666;fill-opacity:1;stroke:#5e5e5e;stroke-width:2.00425;stroke-linecap:round;stroke-dasharray:none;stroke-opacity:1"
         d="m 498.96837,146.9468 c -15.55773,-0.91372 -39.818,-4.40741 -52.04095,-7.49435 -12.75528,-3.22139 -31.09133,-10.03488 -32.30947,-12.00588 -0.69558,-1.12546 2.67005,-16.71341 4.11258,-19.04748 0.7981,-1.29135 2.32475,-1.12561 8.12681,0.88232 29.00221,10.03682 62.79381,14.09907 100.36105,12.06488 30.33883,-1.64278 49.67559,-4.82005 70.08651,-11.51607 l 10.38887,-3.40818 1.8275,6.01904 c 1.00513,3.31047 2.17959,8.04432 2.60993,10.51967 l 0.78242,4.50064 -7.61424,3.44404 c -11.16667,5.05085 -22.60399,8.16863 -41.90208,11.42239 -17.07043,2.87815 -45.48933,5.64945 -53.59988,5.22684 -2.33636,-0.12174 -7.20944,-0.39528 -10.82905,-0.60786 z"
         id="path78"
         transform="translate(4.6402273,-1.8199858)" /><path
         style="fill:#f2f2f2;fill-opacity:1;stroke:none;stroke-width:0.929386;stroke-linecap:round;stroke-dasharray:none;stroke-opacity:1"
         d="m 349.73032,322.51087 c -0.62315,-0.68664 -1.54011,-1.89052 -2.03768,-2.6753 l -0.90467,-1.42688 9.21631,-9.11541 c 5.06897,-5.01348 14.35467,-14.60851 20.63489,-21.32229 6.28022,-6.71377 16.01397,-17.1178 21.63056,-23.12007 5.6166,-6.00227 10.92226,-11.20741 11.79037,-11.567 2.26283,-0.93729 6.83945,-0.97321 7.93847,-0.0623 0.50532,0.41883 0.91877,1.47353 0.91877,2.34378 0,1.72845 -3.78339,6.22762 -17.41773,20.71299 -10.56682,11.22638 -48.47187,47.4809 -49.64253,47.4809 -0.54657,0 -1.50361,-0.5618 -2.12676,-1.24843 z"
         id="path79"
         transform="translate(4.6402273,-1.8199858)" /><path
         style="fill:#f2f2f2;fill-opacity:1;stroke:none;stroke-width:0.929386;stroke-linecap:round;stroke-dasharray:none;stroke-opacity:1"
         d="m 337.9966,301.23158 c -0.69751,-0.48856 -1.5042,-1.50902 -1.79265,-2.26769 -1.50825,-3.96701 5.92396,-12.88046 28.89222,-34.65048 5.64568,-5.35114 10.81024,-10.01997 11.47682,-10.37518 2.97247,-1.58398 7.94319,-0.37815 7.94319,1.92692 0,0.4559 -3.861,4.58034 -8.58001,9.16542 -4.719,4.58508 -13.64527,13.86902 -19.83615,20.63098 -16.91599,18.47641 -15.58649,17.33296 -18.10342,15.57003 z"
         id="path80"
         transform="translate(4.6402273,-1.8199858)" /><path
         style="fill:#f2f2f2;fill-opacity:1;stroke:none;stroke-width:0.929386;stroke-linecap:round;stroke-dasharray:none;stroke-opacity:1"
         d="m 557.32904,304.08708 c -0.74906,-0.74906 -1.36192,-1.85173 -1.36192,-2.45038 0,-1.46941 4.4573,-8.02197 10.05081,-14.77542 5.55645,-6.70871 29.28684,-30.56145 32.55897,-32.72685 2.72123,-1.80082 5.97257,-2.04866 8.15097,-0.62132 1.08747,0.71254 1.29606,1.14706 0.90196,1.87895 -1.2418,2.30616 -11.07588,12.84637 -36.99682,39.65336 -5.53284,5.72197 -10.48324,10.40358 -11.00088,10.40358 -0.51764,0 -1.55403,-0.61286 -2.30309,-1.36192 z"
         id="path81"
         transform="translate(4.6402273,-1.8199858)" /><path
         style="fill:#f2f2f2;fill-opacity:1;stroke:none;stroke-width:0.929386;stroke-linecap:round;stroke-dasharray:none;stroke-opacity:1"
         d="m 569.5378,324.63386 c -1.12341,-1.71455 -0.60374,-2.77587 4.36766,-8.92 4.86514,-6.01279 52.64173,-56.27759 57.61746,-60.61817 4.70422,-4.10372 6.49159,-4.46165 9.2787,-1.8581 0.94779,0.88537 1.72325,1.90229 1.72325,2.25983 0,0.94391 -17.52129,19.02213 -45.05172,46.48372 -25.75216,25.68778 -25.8792,25.7908 -27.93535,22.65272 z"
         id="path82"
         transform="translate(4.6402273,-1.8199858)" /><path
         fill="#000000"
         opacity="1"
         stroke="none"
         d="m 597.10348,755.93988 c 2.47239,13.64725 -6.17274,26.28552 -19.29716,28.82025 -12.48714,2.41165 -24.51233,-5.46155 -27.05229,-17.71163 -2.68809,-12.96509 6.04249,-26.28607 19.19885,-29.29305 11.79913,-2.69686 23.82063,5.17684 27.1506,18.18443 z"
         id="path83"
         style="stroke-width:1.14" /><path
         fill="#000000"
         opacity="1"
         stroke="none"
         d="m 206.0408,585.829 c 2.49956,-15.61289 8.67039,-29.23724 17.55459,-41.52593 15.35308,-21.2364 31.06324,-42.21525 46.70142,-63.24426 2.95542,-3.9742 5.98884,-7.83827 7.30233,-13.08963 -2.45187,-1.53731 -5.20414,-1.81008 -7.96168,-2.24194 -35.08301,-5.49406 -66.37663,-18.8134 -91.31736,-44.87215 -22.2323,-23.22886 -35.58772,-51.07478 -40.11088,-82.70688 -3.59895,-25.16875 -2.73222,-50.44402 5.22757,-74.91109 15.01454,-46.15219 44.72048,-78.52969 90.47289,-95.85796 18.8961,-7.1567 38.24439,-10.66112 58.45389,-10.19594 15.95098,0.36722 31.9172,0.0612 47.87666,0.0769 3.41865,0.003 6.80213,-0.0888 10.26339,-1.89035 -0.60531,-2.80323 -3.04841,-4.23522 -4.64899,-6.18179 -7.77179,-9.45188 -7.59336,-18.62797 0.63519,-27.53754 8.33184,-9.02146 19.4925,-12.89792 30.61479,-16.80256 9.67064,-3.39501 19.45674,-6.43672 29.70111,-7.55435 4.24216,-0.46282 6.25595,-2.75453 7.19146,-6.77712 2.31907,-9.97179 5.2446,-19.81373 7.26748,-29.840785 3.57905,-17.741241 15.26449,-26.9089 31.83115,-30.998623 16.58962,-4.09539 33.41244,-6.299737 50.54618,-7.170341 23.26831,-1.182325 46.20834,0.388078 69.00781,4.816104 3.89587,0.756637 7.69544,2.005653 11.54384,3.010518 16.82846,4.394049 27.24398,14.726663 30.84226,32.069122 1.92214,9.264435 5.13772,18.253185 7.39692,27.457835 1.33602,5.44312 4.16313,8.22085 9.85207,9.17747 11.02937,1.85461 21.97064,4.3183 32.53966,8.09246 7.74108,2.7643 14.99175,6.53832 21.23531,11.9478 12.14648,10.52371 11.85048,22.97679 -0.65412,33.18835 -0.8685,0.70927 -1.92543,1.27262 -2.17793,2.91093 1.95514,1.70703 4.49522,1.07131 6.78094,1.07541 18.04812,0.0325 36.10551,-0.41884 54.14291,0.005 44.73031,1.05009 82.85198,17.75686 113.14684,50.65902 22.22343,24.13613 34.51553,53.11233 38.48105,85.84673 4.69576,38.76309 -3.01923,74.56999 -25.03913,106.69656 -19.27406,28.12051 -45.79935,47.25213 -78.1862,58.10299 -9.55838,3.20244 -19.22543,5.88096 -29.41656,6.14996 -2.23317,0.0589 -4.45091,0.70237 -6.94792,1.12243 -0.21989,3.48207 1.53847,7.10987 -1.73361,9.20117 18.20768,23.79531 36.33903,46.76593 52.50507,71.13879 24.05422,36.26554 28.00665,74.19035 7.76857,113.62833 -5.74691,11.19893 -14.68581,19.79605 -23.53558,28.37487 -16.09152,15.59862 -32.43938,30.93354 -48.73576,46.31966 -2.03313,1.91972 -3.49662,3.89809 -3.48088,6.8284 0.10168,18.99538 0.0585,77.32693 -0.55004,94.01875 0.16532,7.97194 0.28542,15.95391 0.80504,23.90692 0.5437,8.31873 -0.44586,15.71037 -10.17304,19.56448 6.45057,3.98424 12.2187,3.97972 18.23168,2.37186 2.72858,-0.72963 3.56425,-2.8713 3.68768,-5.16716 0.29022,-5.39783 3.88355,-7.84128 8.3149,-8.7452 12.80519,-2.61217 32.46897,-0.84498 41.9931,13.47254 5.00706,7.52712 10.11175,14.94422 13.4948,22.88721 -1.17674,2.1252 -2.60786,1.96015 -3.89391,1.99195 -14.1236,0.3495 -28.78477,0.2358 -41.505,-5.20015 -11.15287,-4.76596 -21.92396,-4.38904 -33.11217,-5.11658 -8.94189,-0.58141 -16.89496,-4.12374 -23.80407,-9.8922 -1.89474,-1.58205 -3.67426,-3.34035 -5.72117,-4.69305 -3.15364,-2.08393 -6.66334,-1.46188 -9.86076,-0.2139 -3.04163,1.18733 -1.8923,4.23883 -1.94525,6.54631 -0.40029,17.46923 -0.58907,34.9438 -1.05985,52.41093 -0.4254,15.78273 1.03556,31.51592 1.00355,47.27492 -0.0238,11.7059 -3.35174,11.1878 -10.92519,11.5479 -22.80004,1.0843 -45.55624,0.6344 -68.34737,-0.024 -13.65343,-0.3946 -27.33909,0.3424 -41.01056,0.5489 -4.17912,0.063 -8.37327,0.2848 -12.53625,0.033 -11.53758,-0.698 -13.88862,1.4795 -12.93385,-13.7843 0.62601,-10.0085 -0.46945,-20.11249 -0.43189,-30.17239 0.0837,-22.39584 0.38353,-44.79091 0.61983,-67.18607 0.0688,-6.51297 -1.37922,-8.49156 -7.97751,-8.00519 -17.65785,1.3017 -35.32307,0.20853 -52.97985,0.60325 -4.87429,0.10899 -5.51311,2.33018 -5.50462,6.36422 0.0679,32.27443 -0.006,64.54905 -0.0476,96.82368 -0.002,2.0874 -0.0114,4.1819 -0.17531,6.2606 -0.44802,5.6803 -3.43054,8.095 -9.27115,8.3706 -42.72365,2.0164 -85.47044,0.4774 -128.20005,1.1071 -3.73673,0.055 -5.14546,-1.2156 -5.82828,-5.0674 -1.08041,-6.095 -0.8828,-12.1374 -0.52,-18.1651 1.77105,-29.42518 0.53308,-58.87033 0.80176,-88.30379 0.0609,-6.67462 -0.83347,-7.3643 -7.71248,-7.37814 -7.78939,-0.0159 -15.58303,0.20561 -23.36742,0.0172 -10.67516,-0.25834 -14.56414,-4.47317 -14.55669,-15.216 0.027,-39.1385 -0.0477,-78.27763 0.18473,-117.41488 0.0298,-5.02029 -1.53998,-8.58439 -4.94516,-12.03849 -15.74638,-15.97262 -32.47374,-30.90167 -48.75776,-46.30226 -16.55014,-15.65221 -30.1045,-33.28772 -34.55631,-56.35085 -2.93436,-15.20208 -3.62046,-30.47479 0.13677,-46.18217 m 526.41095,35.64809 c 10.04209,8.41676 19.14451,17.76702 27.066,28.18734 2.28341,3.00378 3.56069,6.76048 2.06848,10.75995 -0.50779,1.36113 -0.50043,2.73499 0.63067,3.68254 5.79895,4.85815 11.66032,9.64186 17.7991,14.69797 3.61232,-4.07079 8.95212,-9.48322 13.59346,-15.43998 10.86821,-13.94798 17.459,-29.55216 18.14193,-47.55276 1.0471,-27.60204 -7.52531,-51.72494 -24.28259,-73.51648 -16.18393,-21.04605 -31.67282,-42.62777 -47.3649,-64.04901 -1.50014,-2.04784 -2.82851,-1.79314 -4.83881,-1.18718 -14.17641,4.27341 -28.26236,8.81748 -42.00917,14.32611 -11.27429,4.51785 -22.69845,8.69398 -33.55831,14.20156 -3.73897,1.8962 -4.95509,3.79974 -1.96357,7.85759 4.43943,6.02178 10.45784,10.50964 14.93115,16.39441 6.90931,9.0894 4.77877,17.34621 -6.05779,20.99651 -27.71016,9.33426 -53.08988,23.37631 -78.52659,37.4324 -6.98224,3.85836 -10.78924,8.80906 -12.97546,16.62278 -6.94444,24.82023 -21.56721,43.55845 -45.73818,54.18014 -10.19851,4.48166 -20.80406,7.01507 -31.72801,8.66273 -2.6915,0.40586 3.0138,-0.8948 -21.94306,-5.64782 -13.61986,-2.59389 -18.0607,-4.32878 -20.01441,24.77569 0,0 0.14789,115.34244 -0.26907,171.77949 -0.0389,4.63842 1.7483,5.69535 6.07735,5.68589 63.25798,-0.13777 126.51625,-0.12317 189.77444,-0.14279 21.84505,-0.007 43.69023,-0.0472 65.535,0.0276 3.66576,0.0125 6.15291,-0.39291 6.18422,-5.08833 0.0808,-12.13994 0.56074,-24.27721 0.88004,-36.41555 0.6217,-23.64098 -1.30573,-47.28301 0.0169,-70.92635 0.0902,-1.61189 0.54307,-3.44171 -1.35063,-5.16529 -3.65421,0.64008 -6.50338,3.05597 -9.26815,5.60622 -5.4546,5.03148 -11.2921,9.57563 -17.49907,13.63312 -6.38419,4.17349 -8.3046,3.8553 -13.37985,-2.18398 -2.93239,-3.48931 -5.59299,-7.21783 -8.65188,-10.58822 -20.30301,-22.37087 -36.61371,-47.46093 -50.6502,-74.10304 -3.9607,-7.51772 -3.32544,-9.93841 4.0264,-14.3619 5.89581,-3.54734 11.08148,-7.99073 16.45606,-12.20743 1.33844,-1.05003 3.09479,-2.02645 1.98067,-4.11282 -2.28508,-4.27911 0.48817,-6.7508 3.1451,-9.26112 14.07669,-13.29983 28.12876,-26.6266 42.30377,-39.82101 2.41708,-2.24987 3.55471,-4.53357 3.5024,-7.90104 -0.20646,-13.29322 -0.11712,-26.59083 -0.19456,-39.8865 -0.0201,-3.44178 0.31659,-6.81663 1.1233,-10.1596 0.79454,-3.2924 3.10496,-4.62632 6.22479,-4.82268 4.99607,-0.31436 7.92852,2.75398 8.0114,8.82549 0.14779,10.82618 0.0103,21.65606 0.12427,32.48301 0.0288,2.74842 -0.83079,5.65479 0.78061,8.24136 2.40964,0.67966 4.12756,-0.80748 6.02725,-1.50955 9.90836,-3.66158 19.9016,-4.69332 30.04089,-1.00194 2.36044,0.85924 5.07427,2.00307 4.60662,4.94867 -0.44342,2.79344 -3.37414,2.63556 -5.60043,2.71029 -11.65517,0.39118 -22.3054,4.14329 -32.47029,9.55516 -1.99702,1.06319 -4.12632,2.02229 -5.1559,5.07783 6.7925,5.84028 10.04426,16.99844 22.53237,15.05792 0.33301,-0.0516 0.71653,0.22098 1.90622,0.64257 M 540.64362,297.0525 c -1.33261,-4.95297 -2.87909,-9.92913 -2.50517,-15.09724 0.43181,-5.96924 -2.75252,-9.14123 -7.67511,-11.28002 -8.74929,-3.80148 -17.55668,-2.38932 -26.18268,0.19444 -8.61026,2.57909 -10.07388,5.44131 -11.18925,14.25041 -2.21099,17.46194 -8.2791,33.49036 -19.85224,47.02434 -18.90841,22.11215 -43.53058,30.86559 -71.99406,29.87355 -24.38938,-0.85007 -44.88972,-10.08752 -60.52505,-29.26372 -1.21093,-1.48509 -1.86127,-3.83206 -4.30548,-3.83355 -1.67925,2.04948 -1.55334,4.34482 -1.70288,6.62963 -0.71806,10.97276 2.07141,21.42701 4.6768,31.89406 6.16971,24.78672 21.04442,43.36546 41.58665,57.82704 2.0841,1.46721 4.47839,2.71491 6.41898,-0.2062 7.76918,-11.69433 17.68475,-21.80371 24.94717,-33.87597 1.14555,-1.90417 1.84528,-3.80455 1.25098,-5.92275 -0.97968,-3.49166 -1.52665,-7.30313 2.11441,-9.07937 3.28718,-1.60369 6.61398,0.41918 9.27825,2.75836 16.26735,14.28256 27.84445,31.63647 32.95317,52.75813 5.50244,22.74942 6.53027,46.13173 7.65315,69.36521 1.01678,21.03709 -0.27254,42.18042 0.5612,63.23308 0.79401,20.0494 1.17097,39.82979 -6.43341,58.88961 -1.32839,3.32955 -2.13003,6.87599 -1.91774,10.56485 0.0992,1.72377 -0.003,3.44067 1.59252,4.63083 10.5216,7.84823 22.29238,14.77731 35.21798,14.42774 24.75147,-0.66923 44.85938,-11.3454 57.3184,-33.936 11.46216,-20.78304 14.49579,-43.51983 14.2622,-66.61536 -0.30733,-30.3839 -0.14862,-60.70489 2.55715,-90.98837 2.72865,-30.53886 13.8084,-57.31386 35.31228,-79.48803 2.68323,-2.76692 5.48989,-5.30469 9.61132,-5.54189 3.73821,-0.21517 6.56385,1.84211 5.68026,5.27078 -1.49083,5.7844 1.73059,9.27562 4.43524,13.35166 4.94993,7.4598 10.82035,14.13547 16.82964,20.73 8.41892,9.23864 12.56652,9.55273 21.77686,1.29582 0.56451,-0.50609 1.05066,-1.09899 1.60835,-1.61349 19.89957,-18.35828 31.33048,-41.01536 34.89807,-67.83094 1.02082,-7.67327 1.29204,-15.24286 0.81103,-23.93927 -8.34906,14.19599 -10.49534,16.90907 -17.72096,21.63143 -18.37223,12.00753 -37.78795,18.86524 -60.51701,17.2426 -39.05815,-2.78836 -70.31468,-26.94674 -80.83102,-65.3314 M 340.02655,767.26037 c -10.70313,-5.14545 -18.8596,-14.51888 -30.48715,-18.70795 -1.89272,5.028 -0.0987,9.73851 -0.157,14.39961 -0.39382,31.5142 -0.55414,63.03144 -0.99848,94.54479 -0.067,4.75497 1.01678,6.69167 6.27026,6.67142 39.12705,-0.15085 78.25519,0.0136 117.38301,0.029 8.00231,0.003 8.00942,-0.0942 8.00441,-8.24241 -0.0463,-75.14861 -0.0482,-150.29736 -0.19354,-225.44583 -0.0221,-11.42493 1.6422,-22.68307 2.58731,-34.00802 0.53534,-6.41494 -2.02351,-10.23406 -7.35825,-13.35438 -21.67781,-12.67946 -44.34512,-23.29078 -67.41474,-33.12865 -9.63731,-4.10976 -11.17413,-11.18947 -4.73671,-19.44297 4.32045,-5.53925 8.45772,-11.22095 12.72378,-16.80313 2.78262,-3.64102 2.03588,-6.23473 -2.14276,-7.98113 -3.67537,-1.53608 -7.35549,-3.06409 -10.99478,-4.68281 -22.41752,-9.97126 -45.99598,-16.54112 -69.34559,-23.79354 -2.43374,-0.75588 -3.36423,0.36805 -4.5846,2.01453 -13.10428,17.67956 -25.88199,35.59064 -39.7711,52.69773 -14.80043,18.22955 -27.41758,37.37503 -29.92818,62.0339 -2.97705,29.241 2.64363,55.0668 23.94694,76.32055 3.1613,3.154 5.75034,7.00902 10.45211,9.18243 4.47277,-5.52181 9.04112,-10.84358 15.04011,-14.62875 0.8574,-0.54084 1.27019,-1.44281 0.98766,-2.46717 -1.94188,-7.04116 2.57175,-11.49535 6.58739,-16.01033 5.92828,-6.6655 12.33782,-12.91742 18.04576,-19.7598 4.42197,-5.30076 9.37594,-6.81156 15.5939,-4.23026 3.43166,1.42465 5.67138,1.34631 6.64685,-2.97428 0.75927,-3.36295 2.94627,-6.09961 5.29416,-8.658 4.49936,-4.9029 4.26426,-5.51305 -1.53811,-9.15557 -10.24356,-6.43067 -21.25477,-9.89904 -33.43324,-9.40363 -1.8412,0.0749 -4.008,0.23915 -4.67399,-2.21326 -0.5974,-2.19992 0.81458,-3.59111 2.35268,-4.78086 2.91503,-2.25481 6.16578,-3.76895 9.91119,-3.87215 7.21442,-0.19871 14.38281,-0.21346 21.44238,1.88257 6.25758,1.85786 6.94278,1.21286 6.9926,-5.1943 0.0856,-11.01621 0.0439,-22.03389 0.20446,-33.04878 0.0914,-6.27481 1.65837,-7.46261 7.99734,-7.46665 5.44719,-0.003 6.4975,2.9861 6.43644,7.71221 -0.2036,15.76282 -0.13102,31.52934 -0.15931,47.2944 -0.005,2.27041 -0.13606,4.47972 1.88901,6.25916 9.11823,8.0123 18.42041,15.8423 27.14673,24.26588 8.39085,8.09969 20.55734,13.01017 23.06382,26.35189 0.16543,0.88027 1.55355,1.60912 2.47997,2.25489 4.51326,3.14593 8.91357,6.49002 13.62892,9.30294 12.02516,7.17344 12.43482,7.95907 5.49806,20.26983 -17.45447,30.97667 -39.16033,58.69526 -64.55197,83.55041 -1.46627,1.4353 -2.83825,3.19568 -6.13775,2.41645 M 181.86001,220.0436 c -31.97165,41.07094 -37.71322,87.17911 -24.9083,136.20663 7.97501,30.53471 25.95469,54.30852 52.52663,71.8438 21.20025,13.99042 44.69503,20.17868 69.37823,23.32606 3.68642,0.47012 6.15328,-0.73285 7.65969,-4.2868 1.32836,-3.13389 2.81382,-6.27273 4.71566,-9.08024 11.81228,-17.43711 21.76096,-36.11758 35.0252,-52.58081 1.71995,-2.13476 2.1415,-4.20908 1.09791,-6.82248 -4.46924,-11.1918 -6.61481,-22.93718 -7.80234,-34.86033 -1.03218,-10.36334 -2.85779,-20.85335 0.51406,-31.04521 1.32008,-3.99012 1.97573,-7.83574 0.89229,-11.67501 -1.94911,-6.9067 -1.81284,-13.89202 -1.72158,-20.9127 0.12281,-9.45051 0.11884,-9.77038 -9.05791,-9.23764 -14.15533,0.82171 -15.74269,-6.0509 -15.4649,-16.65694 0.32293,-12.32979 4.19621,-15.66027 16.45363,-15.95494 2.088,-0.0502 4.21684,-0.29982 6.25874,0.002 5.17867,0.76642 7.80345,-1.50617 8.6031,-6.47487 0.23911,-1.48601 0.76729,-2.93196 1.23226,-4.37394 1.23944,-3.8438 -0.1466,-6.25042 -3.96996,-7.31143 -8.22174,-2.28159 -16.45784,-4.8491 -25.01596,-5.08674 -9.30657,-0.25843 -33.64441,4.85218 -50.11061,12.92114 -15.0727,7.38609 -44.07378,45.11806 -46.74985,41.84186 -6.1151,-7.48643 31.76464,-47.25744 47.16673,-55.14736 24.68217,-12.64365 46.90072,-16.57154 73.40537,-10.17624 12.91175,3.11545 12.90347,3.08225 19.54677,-8.34634 4.80018,-8.25794 8.59907,-17.17631 16.88197,-23.43196 -3.88264,-2.96937 -7.22441,-2.30928 -10.27119,-1.97801 -8.53516,0.92803 -17.07125,0.42202 -25.60811,0.53348 -18.39272,0.24015 -36.89948,-1.46761 -55.14337,1.63703 -33.59923,5.71767 -62.74759,19.91725 -85.53416,47.12764 m 549.29866,49.4533 c -4.01066,1.52527 -8.1996,1.45259 -12.37734,1.29183 -2.99271,-0.11516 -4.73729,0.9203 -4.66263,4.18187 0.28236,12.32731 -0.35152,24.63705 0.70457,36.99355 1.88625,22.06917 1.28236,44.06061 -7.35748,64.95112 -1.79726,4.34573 -1.75036,7.77103 0.74193,11.61572 12.59812,19.4343 25.14051,38.90527 37.57233,58.44616 1.66673,2.61995 3.61622,3.65687 6.56301,3.27651 7.51055,-0.96932 15.09472,-1.53481 22.52589,-2.92297 27.24119,-5.0886 50.21372,-18.82352 69.23875,-38.17103 26.37423,-26.82141 38.06418,-59.94259 37.36282,-97.62231 -0.67848,-36.45184 -12.75892,-68.63687 -36.81487,-95.68704 -24.4365,-27.47827 -55.93342,-42.19803 -92.61603,-44.01917 -23.49445,-1.1664 -47.09709,-0.16248 -70.65116,-0.10157 -1.4351,0.003 -3.0975,-0.45956 -4.32114,1.68475 8.68618,9.61572 15.26708,20.85681 21.53159,32.3087 1.02916,1.88151 2.70319,1.67753 4.48208,1.0599 9.38887,-3.25992 19.1989,-4.10839 28.97666,-5.46432 20.81367,-2.88632 39.91461,2.35883 58.43455,10.95294 5.07887,2.35681 31.1097,15.47775 41.52907,33.05034 9.1984,15.51339 -22.25447,-10.28861 -41.43647,-19.14721 -15.51008,-7.16285 -32.74211,-9.44599 -35.01559,-10.25791 -7.12327,-2.5439 -14.1492,-1.98467 -21.30663,-0.47771 -5.37918,1.13253 -10.85145,1.8459 -16.19743,3.10571 -3.78996,0.89313 -7.93737,0.73671 -11.68376,3.41947 1.08718,3.03687 2.65699,5.94892 3.12415,9.02825 1.02561,6.7609 5.06508,8.18162 10.93111,7.08318 3.21015,-0.60107 6.36923,-0.57828 9.61062,0.006 2.65406,0.47852 4.49676,1.77643 5.98494,3.90255 5.84348,8.34854 4.02855,20.69607 -4.87354,27.51249 m -143.12782,-79.6003 c -21.8193,2.80499 -43.7294,4.53841 -65.70561,5.40506 -16.33395,0.64416 -32.60493,-0.65502 -48.86929,-1.91969 -22.73599,-1.76786 -45.11086,-5.7331 -67.10634,-11.67295 -10.53036,-2.84369 -21.1174,-5.68264 -30.31517,-11.23247 -3.15567,3.58545 -5.87907,6.49354 -8.39561,9.57083 -11.56402,14.14059 -19.68897,30.09643 -24.97335,47.549 -1.21385,4.00902 -0.37312,6.09926 4.31331,6.05153 38.92817,-0.39645 77.87025,1.03921 116.7854,-0.81551 6.608,-0.31494 12.89042,0.1766 18.63347,3.77162 2.75784,1.72635 5.65092,1.56554 8.78116,1.06141 12.94585,-2.085 25.9174,-2.91483 39.09421,-2.03598 6.47716,0.43199 13.06515,3.55687 19.62308,0.45782 3.88167,-1.83434 7.94042,-2.45166 12.17953,-2.35892 15.37778,0.33636 30.78025,1.33836 46.1288,0.8057 26.01115,-0.90266 52.01842,0.20874 78.01546,-0.64174 2.02416,-0.0662 4.19054,0.44792 6.14044,-1.12509 0.36246,-3.34134 -1.49213,-6.09614 -2.683,-9.02044 -7.30995,-17.95076 -18.55133,-33.46344 -30.10505,-48.80972 -2.3976,-3.18463 -4.91931,-2.99119 -7.93764,-1.71778 -20.08599,8.47387 -41.39965,12.31522 -63.6038,16.67732 m -5.22192,357.9675 c -0.33016,8.357 -1.70151,16.73042 -0.1885,26.06028 25.56856,-12.5037 50.26098,-24.57891 74.63358,-36.49772 -0.55051,-3.51833 -2.32919,-4.79589 -3.81369,-6.19389 -7.07999,-6.66787 -12.95234,-14.37794 -19.00547,-21.92444 -4.41876,-5.5088 -4.19214,-6.62546 1.9625,-9.56696 6.16008,-2.94404 12.41694,-5.69329 18.68925,-8.39346 24.3937,-10.50097 49.00817,-20.43904 74.21797,-28.84259 3.69916,-1.2331 5.62215,-3.23492 3.02577,-7.14039 -9.03666,-13.59276 -15.96817,-28.50463 -25.8107,-41.57133 -3.21878,-4.27309 -5.84008,-9.15735 -9.81185,-12.56925 -2.39412,0.99848 -2.97866,2.71537 -3.92314,4.09274 -5.27293,7.68935 -10.96062,15.02355 -17.859,21.35447 -10.95457,10.05347 -10.94727,10.06137 -0.44956,20.14826 6.43074,6.17911 7.33917,12.12495 2.62651,19.29518 -4.57622,6.96251 -11.64996,9.43278 -19.52907,9.9166 -13.32176,0.81802 -26.02702,-2.00081 -38.15638,-7.32884 -5.19827,-2.28348 -9.44335,-3.03912 -14.39308,1.29256 -5.23229,4.57893 -11.4918,8.03466 -17.49698,11.65895 -3.10008,1.87102 -4.27187,4.07761 -4.5289,7.73812 -1.34374,19.13347 -0.42034,38.25459 -0.18926,58.47171 m -147.58761,18.91419 c 2.62979,1.51671 5.20049,3.14954 7.90271,4.52383 4.49603,2.28653 7.07739,0.92165 7.03046,-4.13989 -0.23769,-25.6199 -0.0775,-51.25565 -2.27983,-76.81941 -0.19041,-2.21038 -0.87932,-3.98382 -2.84684,-5.25216 -7.05452,-4.54789 -13.07948,-10.39631 -19.46308,-15.77559 -2.59774,-2.18903 -4.79748,-2.48787 -7.71149,-1.09238 -7.93427,3.79971 -16.33928,6.08635 -25.02525,7.3516 -9.03481,1.31604 -18.02802,2.47212 -26.9339,-1.03334 -11.0381,-4.34465 -14.12551,-15.95933 -6.43567,-24.99931 1.96765,-2.31321 4.14237,-4.44918 6.14019,-6.73798 4.29161,-4.91664 4.12886,-7.21992 -0.78399,-11.28911 -10.6085,-8.78676 -19.90671,-18.72719 -27.04964,-30.57628 -0.5956,-0.98793 -1.14707,-2.011 -2.96912,-1.76066 -12.72316,18.78948 -25.78197,37.6633 -36.80061,57.85489 -1.70858,3.13103 -0.28577,4.5967 2.39435,5.61585 4.43135,1.68506 8.84977,3.42031 13.34701,4.91333 27.38666,9.09208 54.49371,18.95347 81.31714,29.58559 3.59772,1.42602 7.59444,2.5352 9.90937,6.38221 -0.67639,1.02558 -1.25172,1.9939 -1.91864,2.89436 -6.36509,8.59396 -14.27083,15.74099 -21.77644,23.27312 -6.19563,6.21751 -6.1024,7.36259 1.61294,11.25066 17.12344,8.6292 34.75054,16.24218 52.34033,25.83067 m 129.36303,-450.6078 c -47.85086,6.18306 -95.14641,5.63485 -140.8894,-12.11893 -2.97783,4.52912 -2.92202,9.45408 -4.18633,13.95877 -2.22552,7.92946 -1.88204,8.53828 5.94716,11.87145 26.02296,11.0789 53.61048,14.37251 81.49196,15.94325 21.12211,1.18995 42.03221,-1.43568 62.79507,-4.77303 14.75984,-2.37248 29.37273,-5.79852 42.97899,-12.40631 2.51998,-1.22381 5.75762,-2.24234 5.0392,-5.93619 -1.24855,-6.41982 -2.45848,-12.89264 -5.27223,-19.02729 -15.42572,5.96999 -30.93555,10.05702 -47.90442,12.48828 M 367.06099,679.90175 c -3.82068,6.56747 -8.21999,12.72163 -12.86012,18.74185 -9.2575,12.01092 -18.50015,24.0316 -28.73191,35.23582 -2.77389,3.03746 -2.47685,5.06522 0.8646,7.2362 3.49369,2.26998 7.17284,4.43949 10.11912,7.31977 3.62553,3.54419 5.67001,2.00675 8.12606,-1.14265 11.3106,-14.50379 22.92336,-28.77711 34.00095,-43.45519 6.27213,-8.31073 11.64873,-17.2927 17.57232,-25.87318 2.55826,-3.7057 1.85856,-5.999 -2.06325,-8.14144 -3.47011,-1.89557 -6.83974,-4.17252 -9.75821,-6.8261 -3.06076,-2.78293 -4.88901,-1.68947 -6.88116,0.98651 -3.62552,4.87012 -7.22361,9.75375 -10.3884,15.91841 m -29.79266,-27.43281 c -0.8828,1.8836 -1.47859,3.98074 -2.69533,5.61588 -7.49497,10.07257 -16.61084,18.66551 -25.53165,27.42072 -1.78327,1.75015 -4.28162,2.42145 -6.7761,2.68259 -3.2195,0.33726 -5.67107,1.9001 -7.60254,4.42537 -2.7631,3.61253 -5.51729,7.23272 -8.33727,10.80072 -2.27419,2.87742 -2.13858,5.38711 0.60845,7.94793 3.04994,2.84312 6.12312,5.71699 8.77363,8.919 3.26837,3.9484 5.64324,2.97741 8.67137,-0.34977 16.84017,-18.50367 33.8543,-36.84884 50.73293,-55.31778 5.2078,-5.69848 10.17693,-11.61509 15.61692,-17.846 -5.01756,-4.0593 -9.64036,-7.79917 -14.95994,-12.10285 -4.49106,7.62468 -12.69554,10.76114 -18.50047,17.80419 m 358.31198,70.14147 c -3.80812,-5.20723 -7.65458,-10.38699 -11.41685,-15.62707 -9.18981,-12.79969 -17.89763,-25.91856 -26.12388,-39.36158 -1.98256,-3.23986 -4.09264,-5.47402 -8.65981,-2.7288 -12.42417,7.46756 -12.62185,7.35198 -10.2612,13.19234 0.42638,1.05497 0.8342,2.12706 1.37086,3.12672 13.27486,24.7288 30.71367,46.45827 48.80034,67.72149 1.24076,1.45861 2.67376,2.36836 4.38314,0.97468 5.21107,-4.24871 10.33913,-8.59942 16.41689,-13.67697 -5.11205,-4.76067 -9.54188,-8.88593 -14.50949,-13.62081 m 15.93477,-45.53215 c -3.68531,-4.0703 -8.77114,-7.21908 -10.93863,-12.24284 -4.31286,-9.99596 -12.60619,-16.4434 -19.65696,-24.01748 -6.39831,-6.87313 -6.46198,-6.80314 -13.04517,0.0828 -0.78389,0.82 -1.58817,1.66693 -2.52528,2.28591 -3.72017,2.45723 -3.869,4.94172 -0.81868,8.27969 18.66927,20.42952 37.10934,41.0693 55.86288,61.42059 9.57151,10.387 9.79326,10.18007 20.32993,1.17326 1.00892,-0.86245 1.99681,-1.76198 3.08004,-2.52256 2.85619,-2.0053 2.56758,-3.9859 0.57717,-6.60907 -3.88196,-5.11631 -9.19267,-9.05475 -12.17856,-14.91695 -0.34352,-0.67451 -1.57188,-1.21487 -2.42271,-1.26532 -7.94815,-0.47077 -13.09569,-5.32768 -18.26403,-11.66804 M 442.19932,432.94715 c -5.16094,-11.60167 -9.0263,-23.98968 -19.43838,-33.03657 -0.91828,1.32748 -1.42249,2.09168 -1.96156,2.83053 -12.52932,17.17406 -26.04958,33.47728 -41.71065,47.93747 -2.18537,2.01782 -6.7587,3.23544 -5.14574,7.15643 1.45149,3.52844 5.90921,2.65587 9.13393,3.43371 0.69511,0.16769 1.49827,-0.10773 2.25106,-0.18498 19.61521,-2.01383 36.82486,-9.81861 52.27208,-21.80365 1.90413,-1.47736 4.1595,-2.77274 4.59926,-6.33294 m 173.8576,18.07035 c 11.93028,5.63366 24.14933,10.12538 37.65414,9.57733 2.66972,-0.1083 5.81641,0.14817 6.90904,-2.80484 1.23045,-3.3258 -2.01525,-4.61662 -4.10948,-5.94194 -13.08072,-8.27837 -23.12191,-19.53926 -32.09198,-31.94378 -4.94304,-6.83562 -10.17464,-13.46265 -15.4811,-20.45375 -8.36131,8.6502 -14.21022,18.03263 -18.2895,28.59063 -1.02582,2.65501 0.73581,3.86849 2.15079,5.31304 6.6822,6.82146 14.09772,12.69706 23.25809,17.66331 M 401.47542,264.09814 c -16.76395,17.48905 -32.54787,35.91722 -50.44553,52.16537 3.46935,6.64115 5.10103,7.52524 8.58021,4.12896 20.74976,-20.25587 42.4954,-39.5275 61.31608,-61.69974 1.66868,-1.96584 4.47575,-3.89977 2.55788,-6.77558 -1.70417,-2.55525 -4.85517,-1.456 -7.42132,-1.2345 -1.94042,0.16749 -3.43261,1.30592 -4.76274,2.80875 -3.01511,3.40654 -6.19615,6.66621 -9.82458,10.60674 m 181.15956,44.37211 c -2.41959,2.92644 -5.00491,5.73521 -7.19598,8.82377 -1.29684,1.82802 -3.77195,3.96952 -1.01198,6.4177 2.78815,2.47315 4.51422,-0.19778 6.17058,-1.81325 10.05844,-9.80988 20.118,-19.62096 30.03011,-29.57805 11.52018,-11.57248 22.92222,-23.26348 34.28313,-34.99243 1.46278,-1.51018 3.79469,-3.49596 1.39153,-5.78501 -2.11141,-2.01116 -4.83575,-3.27827 -7.65389,-0.88648 -2.31333,1.96348 -4.69722,3.87763 -6.78775,6.06426 -16.26632,17.01384 -32.46911,34.08848 -49.22575,51.74949 m 9.15633,-31.87833 c 7.00269,-8.05078 15.426,-14.88417 21.59908,-23.98972 -4.9983,-3.84506 -8.82764,-2.32635 -12.27895,0.8422 -4.46963,4.10346 -8.80503,8.35846 -13.09367,12.65267 -9.24992,9.26203 -18.49448,18.54065 -25.83972,29.47079 -1.63583,2.43426 -3.2027,5.07682 -0.002,7.46985 2.91493,2.17991 4.5479,-0.44938 6.16439,-2.10452 7.68465,-7.86841 15.27035,-15.83343 23.45151,-24.34127 m -245.86964,9.47807 c -1.16165,1.49285 -2.35327,2.96349 -3.47855,4.4833 -2.22198,3.00099 -3.48866,6.60653 -0.22531,9.12314 3.29876,2.54392 5.47781,-1.1417 7.3643,-3.20472 12.25971,-13.40665 24.30933,-27.00772 37.76983,-39.25972 1.24104,-1.12956 2.76498,-2.4234 1.92807,-4.33627 -0.81541,-1.86363 -2.80604,-1.67852 -4.48372,-1.71828 -1.91707,-0.0454 -3.88776,0.14535 -5.29669,1.60156 -10.77884,11.14017 -23.12413,20.69426 -33.57793,33.31099 m -64.08467,411.23042 c 0.53038,-0.53993 1.0604,-1.08023 1.59119,-1.61974 9.11076,-9.26106 10.17252,-7.06003 -0.002,-17.05606 -6.65262,-6.53587 -6.71073,-6.56524 -12.94654,0.72948 -8.23332,9.63143 -8.0468,9.45052 0.84767,18.61986 3.82589,3.94409 6.68178,4.27202 10.50967,-0.67354 m 441.63028,-26.47755 c 4.83192,5.09613 5.2961,5.13411 10.23323,-0.0103 3.5401,-3.68914 6.74489,-7.72723 10.49777,-11.17603 2.80255,-2.57551 2.66993,-4.72429 0.39278,-7.23349 -4.70452,-5.18386 -9.44405,-10.336 -14.17585,-15.49509 -1.86733,-2.03612 -3.66597,-2.3109 -5.74732,-0.114 -3.77827,3.98821 -7.78971,7.75646 -11.54287,11.76713 -3.21314,3.43371 -3.30825,6.97054 0.0522,10.5615 3.36497,3.59556 6.53393,7.3746 10.29001,11.70067 M 316.36643,658.93378 c 1.61829,-1.59672 3.27925,-3.15309 4.84052,-4.80375 1.11241,-1.17617 1.95099,-2.7132 0.40801,-3.97295 -6.08822,-4.9706 -11.11003,-11.23122 -18.09059,-15.74224 -4.64699,7.03157 -10.62754,12.02283 -16.15555,17.45502 -1.908,1.87498 -4.16786,4.25587 -2.08361,6.91384 4.62875,5.90291 9.89924,11.24743 14.2623,14.76853 5.90704,-5.13523 11.0567,-9.61202 16.81892,-14.61845 m 5.94263,-27.99739 c 3.62586,3.83087 7.24218,7.67275 12.23686,10.81415 3.98211,-5.67037 10.09208,-9.11856 13.95814,-15.0781 -4.88548,-4.31745 -9.36922,-8.27997 -13.82677,-12.21926 -4.44322,4.34975 -8.49233,8.30385 -12.52858,12.27103 -1.1106,1.09157 -1.19323,2.30715 0.16035,4.21218 m 363.142,-5.90479 c 4.42189,6.33626 9.75778,11.77165 15.70445,16.73376 3.68595,-2.91332 6.71332,-5.71058 9.31408,-8.95573 1.10897,-1.38368 2.04218,-2.73534 0.4245,-4.45905 -4.49995,-4.79505 -8.94133,-9.64506 -13.67771,-14.76742 -4.52613,4.3219 -9.87148,5.61345 -11.76532,11.44844 m -75.76517,346.7661 c -0.40905,0.6366 -0.9115,1.2321 -1.21278,1.9162 -3.0531,6.9334 -1.78869,8.9296 5.61762,8.9245 5.68652,0 11.37581,-0.1242 17.05877,0.014 4.71497,0.115 5.47124,-2.1279 4.31453,-6.1285 -3.14641,-10.88257 -14.90297,-13.41654 -25.77814,-4.7266 M 758.02581,679.56561 c -2.12595,-2.229 -3.24208,-6.29861 -7.03964,-5.75755 -7.28483,1.03793 -10.67311,11.35584 -5.91479,17.00213 2.0746,2.46168 4.02897,5.03051 5.9365,7.62522 1.67841,2.28292 3.47282,2.8221 5.63857,0.72503 3.09458,-2.99647 6.16863,-6.01424 9.43167,-9.19879 -2.72588,-3.50036 -5.15422,-6.6186 -8.05231,-10.39604 M 416.76803,982.8827 c 3.01585,-0.3929 7.49366,1.6757 7.19272,-4.2905 -0.31457,-6.2367 -5.99162,-11.8446 -12.2792,-12.1138 -6.61012,-0.2829 -13.16777,4.7965 -14.09009,10.9142 -0.51716,3.4304 0.46264,5.5588 4.42012,5.4765 4.55565,-0.095 9.11499,-0.013 14.75645,0.014 m 174.50449,-8.6125 c -4.15456,-5.0305 -9.30691,-6.9228 -15.58109,-4.6575 -5.51089,1.9897 -9.46701,7.3355 -9.42777,12.9998 6.72939,0 13.4772,0.029 20.22474,-0.01 6.97722,-0.038 7.55369,-0.9048 4.78412,-8.3342 m -132.4998,8.7225 c 2.18552,-0.1654 4.56345,0.6368 6.52979,-1.3099 0.28204,-3.5862 -1.99403,-5.9382 -4.2,-8.2273 -7.50217,-7.78509 -19.045,-5.8582 -22.07964,3.6231 -1.16467,3.6387 -0.50156,5.964 3.94343,5.9046 4.92063,-0.066 9.84291,-0.012 15.80642,0.01 m -92.91393,-12.5581 c -3.99644,2.9022 -7.00968,6.4318 -8.24428,12.0453 9.39604,0.4961 17.95684,0.5444 26.49005,0.06 0.25581,-10.8413 -7.2537,-15.9038 -18.24577,-12.1049 m 307.01445,12.1965 c 2.04524,-0.1258 4.52166,0.2941 4.00601,-3.1151 -0.86927,-5.7482 -9.46869,-10.9868 -16.59092,-10.1132 -6.47755,0.7946 -9.43207,5.0495 -8.65285,13.2267 h 21.23776 z"
         id="path1"
         sodipodi:nodetypes="cssccsssssscsssssssssssssssscsssssssccsssscsscssssccssssscsssssssssssssscsssssssssssccsssccsssssssssssssscscssssscssssssssssssssssccsssscsccssssssscssscsssssssssssssssssssscscsscccsssssssssssscscssscsssssssssssssssssssssssssccsssscssssssssssssssssssscsssccscssssssssssscssssssssscssssccsssccsssssssssscssccccccsscsssccssssssscccssscsssssssscsssscssscccsssssscccsssssssssscccscsssscsccccsscscsscccsssssssssscccccssscsccsscscscccccssssccsscssssscccsssssccsscsssccccsssccsssssssccsscssccccccscccssccccsssccsssscccssssccscscccsssccccccssccc"
         style="fill:#1a1a1a;stroke-width:1.14" /></g><path
       style="fill:#c8beb7;fill-opacity:1;stroke:none;stroke-width:1.6754;stroke-linecap:round;stroke-dasharray:none"
       d="m 578.29781,532.50808 c 0.14728,-34.14429 0.4094,-42.905 1.33914,-44.75671 0.69709,-1.38835 4.17911,-4.17607 8.77086,-7.02198 4.18816,-2.59577 9.45466,-6.17751 11.70333,-7.95942 5.64031,-4.46953 7.26548,-4.48969 18.72551,-0.23224 10.95796,4.07094 18.48812,5.4952 29.24442,5.53134 14.57837,0.049 21.31022,-3.09933 25.77197,-12.05289 3.67152,-7.36777 2.63007,-10.97819 -5.73626,-19.88619 -3.24127,-3.45112 -5.49709,-6.58992 -5.49709,-7.64878 0,-1.16063 2.88882,-4.65375 8.16757,-9.87612 6.83563,-6.76262 16.65181,-18.63091 19.50099,-23.57775 0.55931,-0.9711 1.06691,-1.04788 2.23443,-0.33799 2.2936,1.39457 13.92065,17.93388 20.5546,29.23859 3.24447,5.52881 7.92042,13.35522 10.39098,17.39201 4.58102,7.48518 5.30321,9.84679 3.44481,11.26467 -0.57592,0.4394 -5.19373,2.23042 -10.26181,3.98004 -21.77139,7.51602 -69.5425,26.92581 -84.18872,34.20656 -7.76732,3.86119 -7.71696,4.93325 0.72479,15.4281 3.67576,4.56974 9.3515,11.16581 12.61274,14.65791 3.26125,3.49211 5.92954,6.78433 5.92954,7.31605 0,0.84591 -28.62869,15.26022 -62.56669,31.50181 l -11.04823,5.2873 z"
       id="path54" /><path
       style="fill:#c8beb7;fill-opacity:1;stroke:none;stroke-width:1.6754;stroke-linecap:round;stroke-dasharray:none"
       d="m 691.37997,638.11417 c -2.71293,-2.64766 -6.14293,-6.37063 -7.62224,-8.27327 l -2.68965,-3.45934 1.66357,-2.11487 c 0.91496,-1.16319 3.53259,-3.45765 5.81696,-5.0988 l 4.1534,-2.98392 6.52958,7.15606 c 3.59128,3.93583 6.65105,7.69057 6.7995,8.34387 0.37122,1.63357 -2.58548,5.59472 -6.47606,8.67612 l -3.24247,2.56808 z"
       id="path55" /><path
       style="fill:#c8beb7;fill-opacity:1;stroke:none;stroke-width:1.6754;stroke-linecap:round;stroke-dasharray:none"
       d="m 743.41788,695.5112 c -4.53675,-5.79816 -4.72602,-6.23604 -4.35669,-10.07972 0.52513,-5.4651 5.35644,-10.51699 8.80347,-9.20541 0.58094,0.22105 3.74585,3.81155 7.03314,7.97889 l 5.9769,7.57699 -5.06492,4.89537 c -2.78571,2.69245 -5.64637,4.89537 -6.35702,4.89537 -0.71066,0 -3.42635,-2.72767 -6.03488,-6.06149 z"
       id="path56" /><path
       style="fill:#c8beb7;fill-opacity:1;stroke:none;stroke-width:1.6754;stroke-linecap:round;stroke-dasharray:none"
       d="m 723.18489,720.86986 c -3.75263,-2.28211 -64.75369,-69.68091 -64.75369,-71.54501 0,-1.60887 9.71866,-11.31294 11.39728,-11.38018 0.50933,-0.0204 5.59835,4.77184 11.30894,10.64943 7.495,7.71418 11.28923,12.36196 13.64151,16.71029 2.36884,4.37894 5.57117,8.28861 11.72778,14.31824 8.26223,8.09181 11.18373,9.92853 18.11113,11.38624 1.15648,0.24335 2.7293,1.49463 3.49516,2.78062 0.76586,1.28598 3.87201,5.08363 6.90257,8.43921 3.03056,3.35558 5.51011,6.80988 5.51011,7.67621 0,1.60966 -8.39064,9.1948 -12.55124,11.34633 -1.98903,1.02857 -2.54371,0.9844 -4.78955,-0.38138 z"
       id="path57" /><path
       style="fill:#c8beb7;fill-opacity:1;stroke:none;stroke-width:1.6754;stroke-linecap:round;stroke-dasharray:none"
       d="m 406.70512,556.33715 c -22.8087,-11.47678 -33.59295,-17.32804 -33.7793,-18.32779 -0.17927,-0.96175 4.01201,-5.88609 12.14424,-14.26824 6.82989,-7.03981 13.16272,-14.19968 14.07294,-15.91082 2.77438,-5.21563 2.79923,-5.20171 -33.90635,-18.99669 -10.82726,-4.06919 -30.24093,-11.0588 -43.14149,-15.53248 -28.92528,-10.03074 -28.9006,-10.02058 -28.9006,-11.90246 0,-3.15394 35.71954,-59.72213 37.71108,-59.72213 0.37597,0 2.83703,3.10996 5.46901,6.91102 2.63199,3.80105 9.82569,11.9135 15.98601,18.02766 6.16033,6.11416 11.20059,11.51069 11.20059,11.99228 0,1.69199 -1.94531,4.57716 -6.0143,8.92006 -7.11535,7.59432 -8.89373,14.00042 -5.78627,20.84328 1.91128,4.20875 5.71975,7.17112 11.73349,9.12674 3.75946,1.22254 6.35256,1.39306 15.07857,0.99157 11.65698,-0.53635 21.14179,-2.51619 31.3642,-6.54688 5.15494,-2.0326 6.97415,-2.41131 8.37698,-1.74386 0.9856,0.46894 5.35639,3.92023 9.71289,7.66955 4.35649,3.74931 9.12944,7.56386 10.60656,8.47678 1.47712,0.9129 3.07657,2.78115 3.55432,4.15165 1.36714,3.92178 2.75743,38.54165 2.47164,61.54707 l -0.26015,20.94247 -2.09425,0.10519 c -1.21549,0.061 -16.15326,-6.96895 -35.59981,-16.75397 z"
       id="path58" /><path
       style="fill:#c8beb7;fill-opacity:1;stroke:none;stroke-width:1.6754;stroke-linecap:round;stroke-dasharray:none"
       d="m 287.33333,717.27954 c -3.6613,-3.80106 -6.66756,-7.51322 -6.68058,-8.24924 -0.0301,-1.69838 10.27462,-15.4214 12.76623,-17.00117 1.0284,-0.65204 3.52454,-1.45226 5.54697,-1.77826 3.1074,-0.5009 4.78248,-1.64907 10.81108,-7.41037 9.72988,-9.29847 19.88966,-21.0474 21.90132,-25.32703 0.96056,-2.04349 3.71283,-5.25213 6.51154,-7.59127 2.66626,-2.22843 6.76148,-5.95638 9.10049,-8.28433 l 4.25275,-4.23265 4.54309,3.70957 c 2.49869,2.04026 5.60768,4.60273 6.90884,5.69438 l 2.36577,1.98483 -9.06735,10.22252 c -9.7266,10.96576 -45.62298,50.19968 -54.45638,59.51956 -2.94762,3.10996 -5.91901,5.65447 -6.60309,5.65447 -0.68408,0 -4.23939,-3.10996 -7.90068,-6.91101 z"
       id="path59" /><path
       style="fill:#c8beb7;fill-opacity:1;stroke:none;stroke-width:1.6754;stroke-linecap:round;stroke-dasharray:none"
       d="m 323.45616,637.47099 c -3.28259,-3.09663 -5.96834,-6.29058 -5.96834,-7.09767 0,-0.80709 2.84218,-4.16723 6.31597,-7.46698 l 6.31596,-5.99955 6.24952,5.61548 c 3.43723,3.08852 6.24951,5.98151 6.24951,6.42887 0,0.44736 -2.96871,3.81413 -6.59714,7.48173 l -6.59714,6.66835 z"
       id="path60" /><path
       style="fill:#c8beb7;fill-opacity:1;stroke:none;stroke-width:1.6754;stroke-linecap:round;stroke-dasharray:none"
       d="m 265.41647,697.51822 c -3.36207,-3.36206 -4.89217,-5.54888 -4.89217,-6.99188 0,-2.71038 8.99421,-13.5632 11.54656,-13.93261 1.34094,-0.19407 3.44439,1.29937 7.71404,5.47695 3.2287,3.15908 5.87037,6.26751 5.87037,6.90763 0,1.73448 -12.02448,13.43207 -13.80744,13.43207 -0.84656,0 -3.74068,-2.20147 -6.43136,-4.89216 z"
       id="path61" /><path
       style="fill:#afc6e9;fill-opacity:1;stroke:none;stroke-width:0.910283;stroke-linecap:round;stroke-dasharray:none;stroke-opacity:1"
       d="m 647.79559,981.31896 c 0,-3.05806 2.04876,-6.67532 4.61935,-8.15584 3.81064,-2.19472 9.85426,-1.07162 15.09883,2.80586 3.03915,2.24694 4.66104,6.36103 2.79066,7.07877 -0.4728,0.18142 -5.7307,0.32987 -11.68424,0.32987 h -10.8246 z"
       id="path71" /><circle
       style="fill:#000000;fill-opacity:1;stroke:none;stroke-width:1.675;stroke-linecap:round;stroke-dasharray:none;stroke-opacity:1"
       id="path84"
       cx="487.22525"
       cy="768.07281"
       r="23.011383" /></g></g></svg>
